#N canvas 237 189 861 554 10;
#X obj 38 20 cnv 15 250 350 empty empty empty 20 12 0 14 -228992 -66577
0;
#X obj 40 51 cnv 15 155 250 empty empty empty 20 12 0 14 -24198 -66577
0;
#X obj 102 323 pix_texture;
#X text 94 20 open a supported;
#X text 95 31 movie-clip;
#X obj 109 231 bng 15 250 50 0 empty empty end_reached 20 7 0 10 -262144
-1 -1;
#X floatatom 104 165 5 0 10000 1 frame# - -, f 5;
#X obj 40 345 rectangle 4 3;
#X obj 40 26 gemhead 2;
#X obj 323 106 bng 15 250 50 0 empty empty empty 17 7 0 10 -262144
-1 -1;
#X obj 323 126 f;
#X obj 366 126 + 1;
#X obj 323 163 % 120;
#X obj 51 287 scale 2.25 1.65 1.65;
#X msg 52 105 open bird.mov;
#X obj 405 98 tgl 15 0 empty empty empty 17 7 0 10 -262144 -1 -1 1
1;
#X obj 321 77 metro 0.1;
#X obj 40 214 pix_movie;
#X connect 6 0 17 1;
#X connect 8 0 17 0;
#X connect 9 0 10 0;
#X connect 10 0 11 0;
#X connect 10 0 12 0;
#X connect 11 0 10 1;
#X connect 14 0 17 0;
#X connect 15 0 16 0;
#X connect 16 0 9 0;
#X connect 17 0 7 0;
#X connect 17 2 5 0;
