#N canvas 15 23 1425 728 10;
#X obj 169 269 mtof;
#X obj 169 311 *~;
#X obj 93 373 dac~;
#X floatatom 168 248 5 0 0 0 - - -, f 5;
#X msg 123 178 4;
#X msg 203 179 11;
#X obj 168 227 + 72;
#X obj 236 241 bng 15 250 50 0 empty empty empty 17 7 0 10 -262144
-1 -1;
#X msg 214 266 1;
#X msg 275 308 0;
#X obj 169 332 *~ 0.015;
#X msg 158 179 8, f 4;
#X obj 169 290 osc~ 440;
#X msg 617 49 2;
#X msg 580 49 0;
#X msg 653 49 4;
#X msg 728 49 7;
#X msg 764 49 9;
#X msg 800 49 11;
#X msg 836 50 12;
#X obj 102 268 mtof;
#X obj 102 310 *~;
#X floatatom 101 247 5 0 0 0 - - -, f 5;
#X obj 101 226 + 72;
#X obj 102 330 *~ 0.015;
#X obj 102 289 osc~ 440;
#X obj 38 268 mtof;
#X obj 38 310 *~;
#X floatatom 37 247 5 0 0 0 - - -, f 5;
#X obj 37 226 + 72;
#X obj 38 330 *~ 0.015;
#X obj 38 289 osc~ 440;
#X msg 374 186 11;
#X msg 689 49 5;
#X text 581 26 C D E F G A B C;
#X obj 492 267 mtof;
#X obj 492 309 *~;
#X obj 416 371 dac~;
#X floatatom 491 246 5 0 0 0 - - -, f 5;
#X obj 491 225 + 72;
#X obj 559 239 bng 15 250 50 0 empty empty empty 17 7 0 10 -262144
-1 -1;
#X msg 537 264 1;
#X msg 598 306 0;
#X obj 492 330 *~ 0.015;
#X obj 492 288 osc~ 440;
#X obj 425 266 mtof;
#X obj 426 308 *~;
#X floatatom 424 245 5 0 0 0 - - -, f 5;
#X obj 424 224 + 72;
#X obj 425 328 *~ 0.015;
#X obj 361 266 mtof;
#X obj 361 308 *~;
#X floatatom 360 245 5 0 0 0 - - -, f 5;
#X obj 360 224 + 72;
#X obj 361 328 *~ 0.015;
#X obj 361 287 osc~ 440;
#X msg 458 186 18;
#X msg 415 186 15;
#X msg 629 180 13;
#X msg 687 180 16;
#X msg 733 180 20;
#X obj 804 271 mtof;
#X obj 804 313 *~;
#X obj 728 375 dac~;
#X floatatom 803 250 5 0 0 0 - - -, f 5;
#X obj 803 229 + 72;
#X obj 871 243 bng 15 250 50 0 empty empty empty 17 7 0 10 -262144
-1 -1;
#X msg 849 268 1;
#X msg 910 310 0;
#X obj 804 334 *~ 0.015;
#X obj 804 292 osc~ 440;
#X obj 737 270 mtof;
#X obj 737 312 *~;
#X floatatom 736 249 5 0 0 0 - - -, f 5;
#X obj 736 228 + 72;
#X obj 737 332 *~ 0.015;
#X obj 737 291 osc~ 440;
#X obj 673 270 mtof;
#X obj 673 312 *~;
#X floatatom 672 249 5 0 0 0 - - -, f 5;
#X obj 672 228 + 72;
#X obj 673 332 *~ 0.015;
#X obj 673 291 osc~ 440;
#X msg 922 176 16;
#X msg 972 178 13;
#X msg 1027 177 9;
#X obj 1120 273 mtof;
#X obj 1120 315 *~;
#X obj 1044 377 dac~;
#X floatatom 1119 252 5 0 0 0 - - -, f 5;
#X obj 1119 231 + 72;
#X obj 1187 245 bng 15 250 50 0 empty empty empty 17 7 0 10 -262144
-1 -1;
#X msg 1165 270 1;
#X msg 1226 312 0;
#X obj 1120 336 *~ 0.015;
#X obj 1120 294 osc~ 440;
#X obj 1053 272 mtof;
#X obj 1053 314 *~;
#X floatatom 1052 251 5 0 0 0 - - -, f 5;
#X obj 1052 230 + 72;
#X obj 1053 334 *~ 0.015;
#X obj 1053 293 osc~ 440;
#X obj 989 272 mtof;
#X obj 989 314 *~;
#X floatatom 988 251 5 0 0 0 - - -, f 5;
#X obj 988 230 + 72;
#X obj 989 334 *~ 0.015;
#X obj 989 293 osc~ 440;
#X floatatom 179 47 5 0 0 0 - - -, f 5;
#X obj 427 44 bng 15 250 50 0 empty empty empty 17 7 0 10 -262144 -1
-1;
#X obj 428 2 tgl 15 0 empty empty empty 17 7 0 10 -262144 -1 -1 1 1
;
#X obj 425 65 f;
#X obj 467 66 + 1;
#X obj 374 66 % 4;
#X obj 180 73 sel 0 1 2 3;
#X obj 428 23 metro 800;
#X obj 268 276 delay 500;
#X obj 591 274 delay 500;
#X obj 903 278 delay 500;
#X obj 1219 280 delay 500;
#X obj 265 402 unsig~;
#X obj 389 460 readsf~;
#X obj 390 569 dac~;
#X obj 390 489 *~ 0.1;
#X msg 389 440 open data/kick.wav \, start;
#X obj 425 287 osc~ 440;
#X obj 585 459 readsf~;
#X obj 586 568 dac~;
#X obj 586 488 *~ 0.5;
#X floatatom 693 411 5 0 0 0 - - -, f 5;
#X obj 627 402 sel 32;
#X msg 585 439 open data/basshous.wav \, start;
#X obj 627 381 key;
#X connect 0 0 12 0;
#X connect 1 0 10 0;
#X connect 3 0 0 0;
#X connect 3 0 7 0;
#X connect 4 0 6 0;
#X connect 5 0 29 0;
#X connect 6 0 3 0;
#X connect 7 0 8 0;
#X connect 7 0 116 0;
#X connect 8 0 1 1;
#X connect 8 0 21 1;
#X connect 8 0 27 1;
#X connect 9 0 1 1;
#X connect 9 0 21 1;
#X connect 9 0 27 1;
#X connect 10 0 2 0;
#X connect 10 0 2 1;
#X connect 11 0 23 0;
#X connect 12 0 1 0;
#X connect 20 0 25 0;
#X connect 21 0 24 0;
#X connect 22 0 20 0;
#X connect 23 0 22 0;
#X connect 24 0 2 0;
#X connect 24 0 2 1;
#X connect 25 0 21 0;
#X connect 26 0 31 0;
#X connect 27 0 30 0;
#X connect 28 0 26 0;
#X connect 29 0 28 0;
#X connect 30 0 2 0;
#X connect 30 0 2 1;
#X connect 31 0 27 0;
#X connect 32 0 53 0;
#X connect 35 0 44 0;
#X connect 36 0 43 0;
#X connect 38 0 35 0;
#X connect 38 0 40 0;
#X connect 39 0 38 0;
#X connect 40 0 41 0;
#X connect 40 0 117 0;
#X connect 41 0 36 1;
#X connect 41 0 46 1;
#X connect 41 0 51 1;
#X connect 42 0 36 1;
#X connect 42 0 46 1;
#X connect 42 0 51 1;
#X connect 43 0 37 0;
#X connect 43 0 37 1;
#X connect 44 0 36 0;
#X connect 45 0 125 0;
#X connect 46 0 49 0;
#X connect 47 0 45 0;
#X connect 48 0 47 0;
#X connect 49 0 37 0;
#X connect 49 0 37 1;
#X connect 50 0 55 0;
#X connect 51 0 54 0;
#X connect 52 0 50 0;
#X connect 53 0 52 0;
#X connect 54 0 37 0;
#X connect 54 0 37 1;
#X connect 55 0 51 0;
#X connect 56 0 39 0;
#X connect 57 0 48 0;
#X connect 58 0 80 0;
#X connect 59 0 74 0;
#X connect 60 0 65 0;
#X connect 61 0 70 0;
#X connect 62 0 69 0;
#X connect 64 0 61 0;
#X connect 64 0 66 0;
#X connect 65 0 64 0;
#X connect 66 0 67 0;
#X connect 66 0 118 0;
#X connect 67 0 62 1;
#X connect 67 0 72 1;
#X connect 67 0 78 1;
#X connect 68 0 62 1;
#X connect 68 0 72 1;
#X connect 68 0 78 1;
#X connect 69 0 63 0;
#X connect 69 0 63 1;
#X connect 70 0 62 0;
#X connect 71 0 76 0;
#X connect 72 0 75 0;
#X connect 73 0 71 0;
#X connect 74 0 73 0;
#X connect 75 0 63 0;
#X connect 75 0 63 1;
#X connect 76 0 72 0;
#X connect 77 0 82 0;
#X connect 78 0 81 0;
#X connect 79 0 77 0;
#X connect 80 0 79 0;
#X connect 81 0 63 0;
#X connect 81 0 63 1;
#X connect 82 0 78 0;
#X connect 83 0 105 0;
#X connect 84 0 99 0;
#X connect 85 0 90 0;
#X connect 86 0 95 0;
#X connect 87 0 94 0;
#X connect 89 0 86 0;
#X connect 89 0 91 0;
#X connect 90 0 89 0;
#X connect 91 0 92 0;
#X connect 91 0 119 0;
#X connect 92 0 87 1;
#X connect 92 0 97 1;
#X connect 92 0 103 1;
#X connect 93 0 87 1;
#X connect 93 0 97 1;
#X connect 93 0 103 1;
#X connect 94 0 88 0;
#X connect 94 0 88 1;
#X connect 95 0 87 0;
#X connect 96 0 101 0;
#X connect 97 0 100 0;
#X connect 98 0 96 0;
#X connect 99 0 98 0;
#X connect 100 0 88 0;
#X connect 100 0 88 1;
#X connect 101 0 97 0;
#X connect 102 0 107 0;
#X connect 103 0 106 0;
#X connect 104 0 102 0;
#X connect 105 0 104 0;
#X connect 106 0 88 0;
#X connect 106 0 88 1;
#X connect 107 0 103 0;
#X connect 108 0 114 0;
#X connect 109 0 111 0;
#X connect 109 0 124 0;
#X connect 110 0 115 0;
#X connect 111 0 112 0;
#X connect 111 0 113 0;
#X connect 112 0 111 1;
#X connect 113 0 108 0;
#X connect 114 0 4 0;
#X connect 114 0 11 0;
#X connect 114 0 5 0;
#X connect 114 1 32 0;
#X connect 114 1 57 0;
#X connect 114 1 56 0;
#X connect 114 2 58 0;
#X connect 114 2 59 0;
#X connect 114 2 60 0;
#X connect 114 3 83 0;
#X connect 114 3 84 0;
#X connect 114 3 85 0;
#X connect 115 0 109 0;
#X connect 116 0 9 0;
#X connect 117 0 42 0;
#X connect 118 0 68 0;
#X connect 119 0 93 0;
#X connect 121 0 123 0;
#X connect 123 0 122 1;
#X connect 123 0 122 0;
#X connect 124 0 121 0;
#X connect 125 0 46 0;
#X connect 126 0 128 0;
#X connect 128 0 127 1;
#X connect 128 0 127 0;
#X connect 130 0 131 0;
#X connect 131 0 126 0;
#X connect 132 0 129 0;
#X connect 132 0 130 0;
