#N canvas 791 168 619 613 10;
#X obj 241 19 gemhead 100;
#X obj 242 52 colorRGB 1 0 0;
#X obj 242 83 GEMglLineWidth 3;
#X obj 241 113 translateXYZ 0 0 0;
#X obj 241 148 t a a a;
#X obj 305 148 GEMglBegin;
#X obj 397 152 loadbang;
#X msg 397 178 3;
#X obj 466 62 line;
#X floatatom 394 28 5 0 0 0 - - -, f 5;
#X msg 394 48 \$1 1 1;
#X msg 467 39 1 \, 0 1000;
#X obj 486 114 hsv2rgb;
#X obj 486 155 unpack f f f;
#X obj 197 190 GEMglEnd;
#X obj 267 190 repeat 400;
#X msg 429 238 dimen 800 400 \, create \, 1;
#X obj 431 271 gemwin;
#X obj 266 216 t a b;
#X obj 266 433 GEMglVertex3f 0 0 0;
#X obj 310 273 t f f f;
#X obj 307 239 f;
#X obj 335 238 + 1;
#X obj 363 239 % 400;
#X floatatom 382 93 5 0 0 0 - - -, f 5;
#X obj 309 297 expr ($f1/400);
#X obj 310 328 k_range 0 1 -6 6;
#X obj 349 364 tabread vol;
#X obj 430 363 table vol 400;
#X obj 31 269 adc~;
#X obj 33 326 tabwrite~ vol;
#X obj 106 257 bng 15 250 50 0 empty empty empty 17 7 0 10 -262144
-1 -1;
#X connect 0 0 1 0;
#X connect 1 0 2 0;
#X connect 2 0 3 0;
#X connect 3 0 4 0;
#X connect 4 0 14 0;
#X connect 4 1 15 0;
#X connect 4 2 5 0;
#X connect 6 0 7 0;
#X connect 7 0 5 1;
#X connect 8 0 9 0;
#X connect 9 0 10 0;
#X connect 10 0 12 0;
#X connect 11 0 8 0;
#X connect 12 0 13 0;
#X connect 13 0 1 1;
#X connect 13 1 1 2;
#X connect 13 2 1 3;
#X connect 15 0 18 0;
#X connect 16 0 17 0;
#X connect 18 0 19 0;
#X connect 18 1 21 0;
#X connect 20 0 25 0;
#X connect 20 1 27 0;
#X connect 21 0 20 0;
#X connect 22 0 23 0;
#X connect 23 0 21 1;
#X connect 24 0 3 2;
#X connect 25 0 26 0;
#X connect 26 0 19 1;
#X connect 27 0 19 2;
#X connect 29 0 30 0;
#X connect 31 0 30 0;
