#N canvas 12 316 1180 450 10;
#X msg 34 9 destroy;
#X obj 34 63 gemwin 30;
#X obj 266 483 adc~;
#X obj 407 262 bng 15 250 50 0 empty empty empty 17 7 0 10 -262144
-1 -1;
#X obj 405 242 metro 10;
#X obj 713 66 tgl 15 0 empty empty empty 17 7 0 10 -262144 -1 -1 1
1;
#X obj 760 65 tgl 15 0 empty empty empty 17 7 0 10 -262144 -1 -1 1
1;
#X obj 321 522 bng 15 250 50 0 empty empty empty 17 7 0 10 -262144
-1 -1;
#X obj 321 497 metro 10;
#X obj 737 66 tgl 15 0 empty empty empty 17 7 0 10 -262144 -1 -1 1
1;
#X obj 400 574 translateXYZ 0 0 0;
#X obj 399 458 clone 200 QQ2;
#N canvas 0 22 450 278 (subpatch) 0;
#X array vol2 200 float 3;
#A 0 0.000155761 9.34939e-05 -0.000785695 -0.00266898 -0.00436962 -0.00300888
-0.00012107 0.0014005 0.00254402 0.00275048 0.0015728 0.000266553 -0.000943908
-0.000520077 0.00264692 0.00600494 0.00659389 0.00661748 0.00648465
0.00570549 0.0064506 0.00651201 0.00766359 0.0100356 0.0102563 0.0118812
0.0129756 0.0118823 0.0118053 0.01026 0.0092422 0.0102468 0.0105702
0.0120154 0.0117149 0.010303 0.0107053 0.0101481 0.0105894 0.0108529
0.00942593 0.00890351 0.00775001 0.00704759 0.0093182 0.0121244 0.013706
0.0135849 0.0124741 0.0126682 0.013079 0.0129728 0.0128395 0.012208
0.0114978 0.0115585 0.0121844 0.012829 0.0146203 0.0153187 0.0141902
0.0138619 0.0131067 0.0125515 0.0129101 0.0129301 0.0125661 0.010354
0.00719673 0.00572651 0.00567882 0.00604349 0.00591086 0.00564768 0.00483204
0.00291354 0.00133003 0.000115549 -0.000813451 -0.00158603 -0.0023678
-0.00412848 -0.0063815 -0.00586211 -0.00427483 -0.00432053 -0.00535992
-0.00629617 -0.00596791 -0.00588395 -0.00662118 -0.00648578 -0.00651526
-0.00670074 -0.00615721 -0.006269 -0.00587813 -0.00530896 -0.00571751
-0.00502947 -0.00547727 -0.00778711 -0.00894734 -0.01017 -0.0115044
-0.0122073 -0.0139891 -0.0150324 -0.0151431 -0.0162887 -0.0163246 -0.0155376
-0.0166975 -0.0197047 -0.0221859 -0.0225434 -0.0212574 -0.019723 -0.0183636
-0.0182827 -0.0200208 -0.020216 -0.0186599 -0.0166969 -0.0155998 -0.0171376
-0.0175765 -0.0161507 -0.0158604 -0.0153643 -0.0145171 -0.0143882 -0.0133531
-0.012018 -0.0111384 -0.00965036 -0.00981857 -0.0109103 -0.011465 -0.0128254
-0.0128047 -0.0123013 -0.0118999 -0.0109956 -0.0113228 -0.0132042 -0.0159894
-0.0156246 -0.01414 -0.0143203 -0.0137982 -0.0150917 -0.0161504 -0.0152943
-0.0140999 -0.0118984 -0.0117443 -0.0118364 -0.0108262 -0.010548 -0.00838404
-0.00492425 -0.000974141 0.0018499 0.00130538 0.000512984 -1.11016e-05
0.00115362 0.00441232 0.00560263 0.00695567 0.0080111 0.00795922 0.0088604
0.00838798 0.00947041 0.0109294 0.00885909 0.00700066 0.00439444 0.00109843
-0.0015424 -0.00378758 -0.00303724 -0.0032293 -0.00488331 -0.00577288
-0.00819574 -0.00951928 -0.00909301 -0.00947011 -0.0107327 -0.0123148
-0.0132688 -0.0129875 -0.0121383 -0.0110743 -0.0100864 -0.00766769
-0.00414314;
#X coords 0 1 200 -1 200 140 1;
#X restore 43 462 graph;
#X obj 397 647 s gemhead2;
#X obj 269 550 tabwrite~ vol2;
#X obj 394 623 scaleXYZ 1 20 0.1;
#X obj 1111 14 vsl 15 128 0 127 0 0 empty empty empty 0 -9 0 10 -204786
-1 -1 0 1;
#X obj 530 516 osc~ 1;
#X obj 530 495 + 0.1;
#X obj 530 537 unsig~ 1;
#X floatatom 529 603 5 0 0 0 - - -, f 5;
#X obj 530 473 / 2000;
#X obj 530 451 random 20;
#X obj 530 560 * 10;
#X msg 600 237 60 152 158;
#X msg 610 256 93 181 164;
#X msg 618 275 255 235 205;
#X msg 625 294 245 122 130;
#X msg 631 313 237 82 118;
#X obj 600 358 unpack f f f;
#X obj 408 284 random 6;
#X obj 408 305 sel 0 1 2 3 4 5;
#X obj 600 381 / 255;
#X obj 634 401 / 255;
#X obj 669 421 / 255;
#X msg 639 333 255 255 255;
#X obj 32 117 part_head;
#X obj 32 140 part_source;
#X obj 33 167 part_killold;
#X obj 33 261 part_draw;
#X msg 999 19 draw point;
#X msg 193 128 speed \$1;
#X obj 33 234 rotateXYZ 180 180 10;
#X obj 32 213 colorRGB 1 1 1;
#X obj 395 600 colorRGB 1 1 1;
#X floatatom 159 84 5 0 0 0 - - -, f 5;
#X obj 1087 353 mtof;
#X obj 1087 395 *~;
#X obj 1011 457 dac~;
#X floatatom 1086 332 5 0 0 0 - - -, f 5;
#X msg 1041 262 4;
#X msg 1121 263 11;
#X obj 1086 311 + 72;
#X obj 1154 325 bng 15 250 50 0 empty empty empty 17 7 0 10 -262144
-1 -1;
#X msg 1132 350 1;
#X msg 1193 392 0;
#X msg 1076 263 8, f 4;
#X obj 1087 374 osc~ 440;
#X obj 1020 352 mtof;
#X obj 1020 394 *~;
#X floatatom 1019 331 5 0 0 0 - - -, f 5;
#X obj 1019 310 + 72;
#X obj 1020 373 osc~ 440;
#X obj 956 352 mtof;
#X obj 956 394 *~;
#X floatatom 955 331 5 0 0 0 - - -, f 5;
#X obj 955 310 + 72;
#X obj 956 373 osc~ 440;
#X msg 1292 270 11;
#X obj 1410 351 mtof;
#X obj 1410 393 *~;
#X obj 1334 455 dac~;
#X floatatom 1409 330 5 0 0 0 - - -, f 5;
#X obj 1409 309 + 72;
#X obj 1477 323 bng 15 250 50 0 empty empty empty 17 7 0 10 -262144
-1 -1;
#X msg 1455 348 1;
#X msg 1516 390 0;
#X obj 1410 372 osc~ 440;
#X obj 1343 350 mtof;
#X obj 1344 392 *~;
#X floatatom 1342 329 5 0 0 0 - - -, f 5;
#X obj 1342 308 + 72;
#X obj 1279 350 mtof;
#X obj 1279 392 *~;
#X floatatom 1278 329 5 0 0 0 - - -, f 5;
#X obj 1278 308 + 72;
#X obj 1279 371 osc~ 440;
#X msg 1376 270 18;
#X msg 1333 270 15;
#X msg 1547 264 13;
#X msg 1605 264 16;
#X msg 1651 264 20;
#X obj 1722 355 mtof;
#X obj 1722 397 *~;
#X obj 1646 459 dac~;
#X floatatom 1721 334 5 0 0 0 - - -, f 5;
#X obj 1721 313 + 72;
#X obj 1789 327 bng 15 250 50 0 empty empty empty 17 7 0 10 -262144
-1 -1;
#X msg 1767 352 1;
#X msg 1828 394 0;
#X obj 1722 376 osc~ 440;
#X obj 1655 354 mtof;
#X obj 1655 396 *~;
#X floatatom 1654 333 5 0 0 0 - - -, f 5;
#X obj 1654 312 + 72;
#X obj 1655 375 osc~ 440;
#X obj 1591 354 mtof;
#X obj 1591 396 *~;
#X floatatom 1590 333 5 0 0 0 - - -, f 5;
#X obj 1590 312 + 72;
#X obj 1591 375 osc~ 440;
#X msg 1840 260 16;
#X msg 1890 262 13;
#X msg 1945 261 9;
#X obj 2038 357 mtof;
#X obj 2038 399 *~;
#X obj 1962 461 dac~;
#X floatatom 2037 336 5 0 0 0 - - -, f 5;
#X obj 2037 315 + 72;
#X obj 2105 329 bng 15 250 50 0 empty empty empty 17 7 0 10 -262144
-1 -1;
#X msg 2083 354 1;
#X msg 2144 396 0;
#X obj 2038 378 osc~ 440;
#X obj 1971 356 mtof;
#X obj 1971 398 *~;
#X floatatom 1970 335 5 0 0 0 - - -, f 5;
#X obj 1970 314 + 72;
#X obj 1971 377 osc~ 440;
#X obj 1907 356 mtof;
#X obj 1907 398 *~;
#X floatatom 1906 335 5 0 0 0 - - -, f 5;
#X obj 1906 314 + 72;
#X obj 1907 377 osc~ 440;
#X floatatom 1266 198 5 0 0 0 - - -, f 5;
#X obj 1283 126 bng 15 250 50 0 empty empty empty 17 7 0 10 -262144
-1 -1;
#X obj 1322 84 tgl 15 0 empty empty empty 17 7 0 10 -262144 -1 -1 0
1;
#X obj 1268 153 f;
#X obj 1310 154 + 1;
#X obj 1266 174 % 4;
#X obj 1267 224 sel 0 1 2 3;
#X obj 1562 160 readsf~;
#X msg 1562 140 open data/kick.wav \, start;
#X obj 1343 371 osc~ 440;
#X obj 1373 167 readsf~;
#X obj 1373 230 dac~;
#X obj 32 96 gemhead;
#X obj 32 190 scale 20;
#X obj 168 104 + 10;
#X obj 1509 358 delay 300;
#X obj 1821 362 delay 300;
#X obj 2137 364 delay 300;
#X obj 1186 360 delay 300;
#X obj 1116 604 mtof;
#X obj 1117 655 *~;
#X obj 1040 738 dac~;
#X floatatom 1115 583 5 0 0 0 - - -, f 5;
#X msg 1070 513 4;
#X msg 1143 515 11;
#X obj 1115 562 + 72;
#X obj 1224 464 bng 15 250 50 0 empty empty empty 17 7 0 10 -262144
-1 -1;
#X msg 1202 489 1;
#X msg 1263 531 0;
#X msg 1105 514 8;
#X obj 1116 625 osc~ 440;
#X obj 1049 603 mtof;
#X obj 1052 654 *~;
#X floatatom 1048 582 5 0 0 0 - - -, f 5;
#X obj 1048 561 + 72;
#X obj 1049 624 osc~ 440;
#X obj 975 603 mtof;
#X obj 975 653 *~;
#X floatatom 974 582 5 0 0 0 - - -, f 5;
#X obj 974 561 + 72;
#X obj 975 624 osc~ 440;
#X obj 1256 499 delay 1000;
#X msg 1373 147 open data/clap.wav \, start;
#X obj 1373 196 *~ 0.3;
#X obj 1380 103 metro 1000;
#X obj 1373 126 bng 15 250 50 0 empty empty empty 17 7 0 10 -262144
-1 -1;
#X obj 1378 81 tgl 15 0 empty empty empty 17 7 0 10 -262144 -1 -1 0
1;
#X obj 1276 32 tgl 15 0 empty empty empty 17 7 0 10 -204800 -1 -1 1
1;
#X obj 1240 84 tgl 15 0 empty empty empty 17 7 0 10 -261234 -1 -1 1
1;
#X obj 1199 105 metro 500;
#X obj 1199 126 bng 15 250 50 0 empty empty empty 17 7 0 10 -262144
-1 -1;
#X obj 765 381 gemhead;
#X obj 765 405 alpha 1;
#X obj 766 522 circle 1;
#X msg 999 41 draw line;
#X obj 765 433 colorRGB 1 1 1;
#X obj 766 460 scaleXYZ 2 2 2;
#X obj 766 557 gemhead;
#X obj 766 581 alpha 1;
#X obj 767 664 translateXYZ 0 0 0;
#X obj 767 698 circle 2;
#X obj 767 636 scaleXYZ 0.8 0.8 0.8;
#X msg 1002 107 width 1000;
#X msg 1001 64 width 1;
#X obj 1559 220 dac~;
#X obj 1568 46 s abc;
#X msg 1646 15 0;
#X msg 1645 42 1;
#X msg 1645 63 2;
#X obj 529 581 + 0;
#X obj 1157 16 vsl 15 128 0 127 0 0 empty empty empty 0 -9 0 10 -262144
-1 -1 0 1;
#X obj 1079 14 vsl 15 128 0 127 0 0 empty empty empty 0 -9 0 10 -261234
-1 -1 0 1;
#X obj 974 674 *~ 0.1;
#X obj 1117 677 *~ 0.1;
#X obj 1049 675 *~ 0.1;
#X floatatom 1713 17 5 0 0 0 - - -, f 5;
#X obj 678 610 osc~ 1;
#X obj 678 589 + 0.1;
#X obj 678 631 unsig~ 1;
#X floatatom 674 698 5 0 0 0 - - -, f 5;
#X obj 672 670 + 0;
#X obj 678 567 / 200;
#X obj 684 651 * 4;
#X obj 767 488 translateXYZ 0 0 0;
#X obj 674 527 200;
#X obj 837 729 gemhead;
#X obj 837 753 alpha 1;
#X msg 972 840 width 1000;
#X obj 838 808 scaleXYZ 0.1 0.1 0.1;
#X obj 838 870 square 1;
#X obj 765 610 colorRGB 0.9 0.5 0.5;
#X obj 837 781 colorRGB 1 1 1;
#X obj 1026 222 tgl 15 0 empty empty empty 17 7 0 10 -262144 -1 -1
0 1;
#X obj 1604 702 mtof;
#X obj 1605 753 *~;
#X obj 1528 836 dac~;
#X floatatom 1603 681 5 0 0 0 - - -, f 5;
#X obj 1603 660 + 72;
#X obj 1671 674 bng 15 250 50 0 empty empty empty 17 7 0 10 -262144
-1 -1;
#X msg 1649 699 1;
#X msg 1710 741 0;
#X obj 1604 723 osc~ 440;
#X obj 1537 701 mtof;
#X obj 1540 752 *~;
#X floatatom 1536 680 5 0 0 0 - - -, f 5;
#X obj 1536 659 + 72;
#X obj 1537 722 osc~ 440;
#X obj 1473 701 mtof;
#X obj 1473 751 *~;
#X floatatom 1472 680 5 0 0 0 - - -, f 5;
#X obj 1472 659 + 72;
#X obj 1473 722 osc~ 440;
#X obj 1703 709 delay 1000;
#X obj 1649 774 *~ 0.1;
#X obj 1771 782 *~ 0.1;
#X obj 1717 780 *~ 0.1;
#X obj 1473 793 *~ 0.0001;
#X obj 1537 793 *~ 0.0001;
#X obj 1604 795 *~ 0.0001;
#X msg 1558 611 -8;
#X msg 1593 612 -4, f 4;
#X msg 1638 612 -1;
#X obj 1424 127 bng 15 250 50 0 empty empty empty 17 7 0 10 -262144
-1 -1;
#X obj 1437 81 tgl 15 0 empty empty empty 17 7 0 10 -261682 -1 -1 0
1;
#X obj 1458 105 metro 500;
#N canvas 0 22 450 278 (subpatch) 0;
#X array ula 16 float 3;
#A 0 6 -1 13 6 -1 8 6 -1 6 -1 -1 -1 -1 -1 -1 -1;
#X coords 0 17 16 -1 200 140 1 0 0;
#X restore 2257 726 graph;
#X obj 2039 641 expr~ 1-$v1;
#X obj 2034 667 lop~ 100;
#X obj 1930 716 expr~ if($v1>=0 \, 1 \, 0);
#X obj 1933 753 lop~ 100;
#X obj 1281 105 metro 500;
#X obj 1563 189 *~ 0.8;
#X obj 1513 9 tgl 15 0 empty empty empty 17 7 0 10 -262144 -1 -1 0
1;
#X obj 1514 54 bng 15 250 50 0 empty empty empty 17 7 0 10 -262144
-1 -1;
#X obj 2186 596 f;
#X obj 2190 666 tabread ula;
#X obj 2194 729 mtof;
#X obj 2206 803 dac~;
#X obj 2216 597 + 1;
#X obj 2104 782 *~;
#X obj 2056 808 *~;
#X obj 1742 46 vsl 15 128 0 127 0 0 empty empty empty 0 -9 0 10 -262144
-1 -1 0 1;
#X obj 2083 828 *~;
#X obj 1393 39 tgl 15 0 empty empty empty 17 7 0 10 -262130 -1 -1 0
1;
#X obj 2152 847 *~ 0.003;
#X obj 1297 8 tgl 15 0 empty empty empty 17 7 0 10 -203904 -1 -1 0
1;
#X obj 800 27 loadbang;
#X obj 1646 84 clone 10 star;
#X obj 207 353 translateXYZ 0 0 0;
#X obj 207 387 circle 2;
#X obj 206 246 gemhead -100;
#X obj 205 299 colorRGB 0.9 0.5 0.5;
#X obj 206 270 alpha 1;
#X obj 402 497 gemhead 2;
#X obj 399 544 alpha 1;
#X obj 207 325 scaleXYZ 0 0 0;
#X obj 455 714 gemhead;
#X obj 445 790 pix_texture;
#X obj 454 845 square;
#X obj 447 749 pix_image bird.png;
#X obj 562 790 alpha 1;
#X obj 1510 31 metro 250;
#X obj 2198 754 osc~;
#X obj 2190 696 + 70;
#X obj 2047 612 expr~ modf($v1*16);
#X obj 2184 628 mod 16;
#X msg 1856 537 \; ula 0 9 9 11 11 7 7 2 2 -1 -1 11 11 7 7 2 2;
#X msg 1854 572 \; ula 0 9 9 9 9 11 11 11 11 7 7 7 7 2 2 2 2;
#X obj 838 836 rotateXYZ 0 0 0;
#X floatatom 997 781 5 0 0 0 - - -, f 5;
#X obj 1133 850 f;
#X obj 1189 860 + 1;
#X obj 1129 763 tgl 15 0 empty empty empty 17 7 0 10 -262144 -1 -1
1 1;
#X obj 1127 809 bng 15 250 50 0 empty empty empty 17 7 0 10 -262144
-1 -1;
#X obj 1120 788 metro 5;
#X obj 1023 181 tgl 15 0 empty empty empty 17 7 0 10 -262144 -1 -1
0 1;
#X msg 1790 2 \; ula 0 6 -1 13 6 -1 8 6 -1 6 -1 -1 -1 -1 -1 -1 -1 -1
-1;
#X msg 1791 39 \; ula 0 6 -1 13 6 -1 8 6 -1 6 -1 13 -1 6 -1 8 6 8 6
;
#X obj 489 822 scaleXYZ 1.3 1 1;
#X obj 956 414 *~ 0.03;
#X obj 1020 414 *~ 0.03;
#X obj 1087 416 *~ 0.03;
#X obj 1279 412 *~ 0.03;
#X obj 1343 412 *~ 0.03;
#X obj 1410 414 *~ 0.03;
#X obj 1591 416 *~ 0.03;
#X obj 1655 416 *~ 0.03;
#X obj 1722 418 *~ 0.03;
#X obj 1907 418 *~ 0.03;
#X obj 1971 418 *~ 0.03;
#X obj 2038 420 *~ 0.03;
#X obj 1116 697 *~ 0.001;
#X obj 1049 695 *~ 0.001;
#X obj 975 695 *~ 0.001;
#X msg 33 35 destroy \, dimen 1024 720 \, color 0 0 0 \, create \,
-30;
#X connect 0 0 1 0;
#X connect 2 0 14 0;
#X connect 3 0 30 0;
#X connect 3 0 22 0;
#X connect 4 0 3 0;
#X connect 5 0 4 0;
#X connect 6 0 286 0;
#X connect 7 0 14 0;
#X connect 8 0 7 0;
#X connect 9 0 8 0;
#X connect 10 0 44 0;
#X connect 15 0 13 0;
#X connect 16 0 23 1;
#X connect 16 0 45 0;
#X connect 17 0 19 0;
#X connect 18 0 17 0;
#X connect 19 0 23 0;
#X connect 20 0 15 2;
#X connect 21 0 18 0;
#X connect 22 0 21 0;
#X connect 23 0 202 0;
#X connect 24 0 29 0;
#X connect 25 0 29 0;
#X connect 26 0 29 0;
#X connect 27 0 29 0;
#X connect 28 0 29 0;
#X connect 29 0 32 0;
#X connect 29 1 33 0;
#X connect 29 2 34 0;
#X connect 30 0 31 0;
#X connect 31 0 24 0;
#X connect 31 1 25 0;
#X connect 31 2 26 0;
#X connect 31 3 27 0;
#X connect 31 4 28 0;
#X connect 31 5 35 0;
#X connect 32 0 44 1;
#X connect 33 0 44 2;
#X connect 34 0 44 3;
#X connect 35 0 29 0;
#X connect 36 0 37 0;
#X connect 37 0 38 0;
#X connect 38 0 146 0;
#X connect 40 0 39 0;
#X connect 41 0 36 0;
#X connect 42 0 39 0;
#X connect 43 0 42 0;
#X connect 44 0 15 0;
#X connect 45 0 147 0;
#X connect 46 0 57 0;
#X connect 47 0 314 0;
#X connect 49 0 46 0;
#X connect 49 0 53 0;
#X connect 50 0 52 0;
#X connect 51 0 66 0;
#X connect 52 0 49 0;
#X connect 53 0 54 0;
#X connect 53 0 151 0;
#X connect 54 0 47 1;
#X connect 54 0 59 1;
#X connect 54 0 64 1;
#X connect 55 0 47 1;
#X connect 55 0 59 1;
#X connect 55 0 64 1;
#X connect 56 0 61 0;
#X connect 57 0 47 0;
#X connect 58 0 62 0;
#X connect 59 0 313 0;
#X connect 60 0 58 0;
#X connect 61 0 60 0;
#X connect 62 0 59 0;
#X connect 63 0 67 0;
#X connect 64 0 312 0;
#X connect 65 0 63 0;
#X connect 66 0 65 0;
#X connect 67 0 64 0;
#X connect 68 0 85 0;
#X connect 69 0 77 0;
#X connect 70 0 317 0;
#X connect 72 0 69 0;
#X connect 72 0 74 0;
#X connect 73 0 72 0;
#X connect 74 0 75 0;
#X connect 74 0 148 0;
#X connect 75 0 70 1;
#X connect 75 0 79 1;
#X connect 75 0 83 1;
#X connect 76 0 70 1;
#X connect 76 0 79 1;
#X connect 76 0 83 1;
#X connect 77 0 70 0;
#X connect 78 0 142 0;
#X connect 79 0 316 0;
#X connect 80 0 78 0;
#X connect 81 0 80 0;
#X connect 82 0 86 0;
#X connect 83 0 315 0;
#X connect 84 0 82 0;
#X connect 85 0 84 0;
#X connect 86 0 83 0;
#X connect 87 0 73 0;
#X connect 88 0 81 0;
#X connect 89 0 109 0;
#X connect 90 0 104 0;
#X connect 91 0 96 0;
#X connect 92 0 100 0;
#X connect 93 0 320 0;
#X connect 95 0 92 0;
#X connect 95 0 97 0;
#X connect 96 0 95 0;
#X connect 97 0 98 0;
#X connect 97 0 149 0;
#X connect 98 0 93 1;
#X connect 98 0 102 1;
#X connect 98 0 107 1;
#X connect 99 0 93 1;
#X connect 99 0 102 1;
#X connect 99 0 107 1;
#X connect 100 0 93 0;
#X connect 101 0 105 0;
#X connect 102 0 319 0;
#X connect 103 0 101 0;
#X connect 104 0 103 0;
#X connect 105 0 102 0;
#X connect 106 0 110 0;
#X connect 107 0 318 0;
#X connect 108 0 106 0;
#X connect 109 0 108 0;
#X connect 110 0 107 0;
#X connect 111 0 131 0;
#X connect 112 0 126 0;
#X connect 113 0 118 0;
#X connect 114 0 122 0;
#X connect 115 0 323 0;
#X connect 117 0 114 0;
#X connect 117 0 119 0;
#X connect 118 0 117 0;
#X connect 119 0 120 0;
#X connect 119 0 150 0;
#X connect 120 0 115 1;
#X connect 120 0 124 1;
#X connect 120 0 129 1;
#X connect 121 0 115 1;
#X connect 121 0 124 1;
#X connect 121 0 129 1;
#X connect 122 0 115 0;
#X connect 123 0 127 0;
#X connect 124 0 322 0;
#X connect 125 0 123 0;
#X connect 126 0 125 0;
#X connect 127 0 124 0;
#X connect 128 0 132 0;
#X connect 129 0 321 0;
#X connect 130 0 128 0;
#X connect 131 0 130 0;
#X connect 132 0 129 0;
#X connect 133 0 139 0;
#X connect 134 0 136 0;
#X connect 134 0 217 0;
#X connect 135 0 263 0;
#X connect 136 0 137 0;
#X connect 136 0 138 0;
#X connect 137 0 136 1;
#X connect 138 0 133 0;
#X connect 139 0 50 0;
#X connect 139 0 56 0;
#X connect 139 0 51 0;
#X connect 139 1 68 0;
#X connect 139 1 88 0;
#X connect 139 1 87 0;
#X connect 139 2 89 0;
#X connect 139 2 90 0;
#X connect 139 2 91 0;
#X connect 139 3 111 0;
#X connect 139 3 112 0;
#X connect 139 3 113 0;
#X connect 140 0 264 0;
#X connect 141 0 140 0;
#X connect 142 0 79 0;
#X connect 143 0 176 0;
#X connect 145 0 36 0;
#X connect 146 0 43 0;
#X connect 147 0 41 0;
#X connect 148 0 76 0;
#X connect 149 0 99 0;
#X connect 150 0 121 0;
#X connect 151 0 55 0;
#X connect 152 0 163 0;
#X connect 153 0 206 0;
#X connect 155 0 152 0;
#X connect 155 0 159 0;
#X connect 156 0 158 0;
#X connect 157 0 172 0;
#X connect 158 0 155 0;
#X connect 159 0 160 0;
#X connect 159 0 174 0;
#X connect 160 0 153 1;
#X connect 160 0 165 1;
#X connect 160 0 170 1;
#X connect 161 0 153 1;
#X connect 161 0 165 1;
#X connect 161 0 170 1;
#X connect 162 0 167 0;
#X connect 163 0 153 0;
#X connect 164 0 168 0;
#X connect 165 0 207 0;
#X connect 166 0 164 0;
#X connect 167 0 166 0;
#X connect 168 0 165 0;
#X connect 169 0 173 0;
#X connect 170 0 205 0;
#X connect 171 0 169 0;
#X connect 172 0 171 0;
#X connect 173 0 170 0;
#X connect 174 0 161 0;
#X connect 175 0 143 0;
#X connect 176 0 144 1;
#X connect 176 0 144 0;
#X connect 177 0 178 0;
#X connect 178 0 175 0;
#X connect 179 0 177 0;
#X connect 179 0 308 0;
#X connect 180 0 135 0;
#X connect 180 0 179 0;
#X connect 180 0 181 0;
#X connect 180 0 256 0;
#X connect 180 0 276 0;
#X connect 181 0 182 0;
#X connect 182 0 183 0;
#X connect 183 0 156 0;
#X connect 183 0 162 0;
#X connect 183 0 157 0;
#X connect 183 0 252 0;
#X connect 183 0 253 0;
#X connect 183 0 254 0;
#X connect 184 0 185 0;
#X connect 185 0 188 0;
#X connect 187 0 186 0;
#X connect 187 0 193 0;
#X connect 187 0 222 0;
#X connect 188 0 189 0;
#X connect 189 0 216 0;
#X connect 190 0 191 0;
#X connect 191 0 223 0;
#X connect 192 0 193 0;
#X connect 194 0 192 0;
#X connect 195 0 193 0;
#X connect 196 0 186 0;
#X connect 199 0 198 0;
#X connect 200 0 198 0;
#X connect 201 0 198 0;
#X connect 202 0 20 0;
#X connect 203 0 146 1;
#X connect 203 0 204 0;
#X connect 204 0 205 1;
#X connect 204 0 206 1;
#X connect 204 0 207 1;
#X connect 204 0 203 0;
#X connect 204 0 246 1;
#X connect 204 0 248 1;
#X connect 204 0 247 1;
#X connect 205 0 326 0;
#X connect 206 0 324 0;
#X connect 207 0 325 0;
#X connect 208 0 198 0;
#X connect 209 0 211 0;
#X connect 210 0 209 0;
#X connect 211 0 215 0;
#X connect 212 0 189 1;
#X connect 212 0 189 2;
#X connect 212 0 189 3;
#X connect 212 0 196 0;
#X connect 212 0 194 1;
#X connect 212 0 194 2;
#X connect 212 0 194 3;
#X connect 212 0 221 1;
#X connect 212 0 221 2;
#X connect 212 0 221 3;
#X connect 213 0 212 0;
#X connect 214 0 210 0;
#X connect 215 0 213 0;
#X connect 216 0 186 0;
#X connect 217 0 214 0;
#X connect 218 0 219 0;
#X connect 219 0 224 0;
#X connect 220 0 222 0;
#X connect 221 0 301 0;
#X connect 223 0 194 0;
#X connect 224 0 221 0;
#X connect 225 0 190 0;
#X connect 225 0 184 0;
#X connect 226 0 234 0;
#X connect 227 0 247 0;
#X connect 229 0 226 0;
#X connect 229 0 231 0;
#X connect 230 0 229 0;
#X connect 231 0 232 0;
#X connect 231 0 245 0;
#X connect 232 0 227 1;
#X connect 232 0 236 1;
#X connect 232 0 241 1;
#X connect 233 0 227 1;
#X connect 233 0 236 1;
#X connect 233 0 241 1;
#X connect 234 0 227 0;
#X connect 235 0 239 0;
#X connect 236 0 248 0;
#X connect 237 0 235 0;
#X connect 238 0 237 0;
#X connect 239 0 236 0;
#X connect 240 0 244 0;
#X connect 241 0 246 0;
#X connect 242 0 240 0;
#X connect 243 0 242 0;
#X connect 244 0 241 0;
#X connect 245 0 233 0;
#X connect 246 0 249 0;
#X connect 247 0 251 0;
#X connect 248 0 250 0;
#X connect 249 0 228 0;
#X connect 249 0 228 1;
#X connect 250 0 228 0;
#X connect 250 0 228 1;
#X connect 251 0 228 0;
#X connect 251 0 228 1;
#X connect 252 0 230 0;
#X connect 253 0 238 0;
#X connect 254 0 243 0;
#X connect 256 0 257 0;
#X connect 256 0 225 0;
#X connect 257 0 255 0;
#X connect 257 0 141 0;
#X connect 259 0 260 0;
#X connect 260 0 272 1;
#X connect 261 0 262 0;
#X connect 262 0 273 1;
#X connect 263 0 134 0;
#X connect 264 0 197 0;
#X connect 264 0 197 1;
#X connect 265 0 294 0;
#X connect 266 0 267 0;
#X connect 267 0 271 0;
#X connect 267 0 298 0;
#X connect 268 0 261 0;
#X connect 268 0 296 0;
#X connect 269 0 295 0;
#X connect 271 0 267 1;
#X connect 272 0 273 0;
#X connect 273 0 275 0;
#X connect 274 0 275 1;
#X connect 274 0 208 0;
#X connect 275 0 277 0;
#X connect 276 0 179 0;
#X connect 276 0 256 0;
#X connect 277 0 270 0;
#X connect 277 0 270 1;
#X connect 278 0 180 0;
#X connect 278 0 265 0;
#X connect 279 0 5 0;
#X connect 279 0 9 0;
#X connect 279 0 6 0;
#X connect 279 0 40 0;
#X connect 279 0 187 0;
#X connect 279 0 225 0;
#X connect 279 0 308 0;
#X connect 281 0 282 0;
#X connect 283 0 285 0;
#X connect 284 0 288 0;
#X connect 285 0 284 0;
#X connect 286 0 287 0;
#X connect 287 0 10 0;
#X connect 288 0 281 0;
#X connect 289 0 293 0;
#X connect 290 0 311 0;
#X connect 292 0 290 0;
#X connect 293 0 292 0;
#X connect 294 0 266 0;
#X connect 295 0 272 0;
#X connect 296 0 269 0;
#X connect 297 0 259 0;
#X connect 298 0 268 0;
#X connect 298 0 297 0;
#X connect 301 0 222 0;
#X connect 302 0 301 1;
#X connect 302 0 301 2;
#X connect 302 0 301 3;
#X connect 303 0 304 0;
#X connect 303 0 302 0;
#X connect 304 0 303 1;
#X connect 305 0 307 0;
#X connect 306 0 303 0;
#X connect 307 0 306 0;
#X connect 308 0 218 0;
#X connect 311 0 291 0;
#X connect 312 0 48 0;
#X connect 312 0 48 1;
#X connect 313 0 48 0;
#X connect 313 0 48 1;
#X connect 314 0 48 0;
#X connect 314 0 48 1;
#X connect 315 0 71 0;
#X connect 315 0 71 1;
#X connect 316 0 71 0;
#X connect 316 0 71 1;
#X connect 317 0 71 0;
#X connect 317 0 71 1;
#X connect 318 0 94 0;
#X connect 318 0 94 1;
#X connect 319 0 94 0;
#X connect 319 0 94 1;
#X connect 320 0 94 0;
#X connect 320 0 94 1;
#X connect 321 0 116 0;
#X connect 321 0 116 1;
#X connect 322 0 116 0;
#X connect 322 0 116 1;
#X connect 323 0 116 0;
#X connect 323 0 116 1;
#X connect 324 0 154 0;
#X connect 324 0 154 1;
#X connect 325 0 154 0;
#X connect 325 0 154 1;
#X connect 326 0 154 0;
#X connect 326 0 154 1;
#X connect 327 0 1 0;
