#N canvas 809 345 554 442 10;
#X obj 165 165 t a b;
#X obj 165 187 separator;
#X obj 161 279 translateXYZ 0 0 0;
#X obj 248 118 f \$1;
#X floatatom 248 140 5 0 0 0 - - -, f 5;
#X obj 248 160 t f f;
#X obj 427 185 tabread vol;
#X obj 248 96 bng 15 250 50 0 empty empty empty 17 7 0 10 -262144 -1
-1;
#X obj 165 144 r gemhead;
#X obj 248 184 expr (($f1/400)*40)-10;
#X obj 161 304 circle 0.2;
#X connect 0 0 1 0;
#X connect 0 1 7 0;
#X connect 1 0 2 0;
#X connect 2 0 10 0;
#X connect 3 0 4 0;
#X connect 4 0 5 0;
#X connect 5 0 9 0;
#X connect 5 1 6 0;
#X connect 6 0 2 2;
#X connect 7 0 3 0;
#X connect 8 0 0 0;
#X connect 9 0 2 1;
