#N canvas 151 23 939 797 10;
#X obj 65 407 + 60;
#X obj 65 428 mtof~;
#X obj 65 534 dac~;
#X obj 222 393 osc~ 1;
#X obj 65 476 *~;
#X obj 96 131 random 7;
#X obj 112 152 random 2;
#X obj 112 173 expr if($f1==0 \, 48 \, 60);
#X obj 65 497 *~;
#X obj 270 172 random 100;
#X obj 270 192 / 500;
#X obj 325 427 gemhead;
#X obj 222 372 + 0.1;
#X obj 222 414 unsig~ 1;
#X floatatom 219 456 5 0 0 0 - - -, f 5;
#X obj 344 132 random 100;
#X obj 344 152 / 100;
#X obj 325 469 pix_texture;
#X obj 325 632 square;
#X msg 600 237 60 152 158;
#X msg 610 256 93 181 164;
#X msg 618 275 255 235 205;
#X msg 625 294 245 122 130;
#X msg 631 313 237 82 118;
#X obj 600 358 unpack f f f;
#X obj 96 93 t b b b b b b;
#X obj 464 132 random 6;
#X obj 464 153 sel 0 1 2 3 4 5;
#X obj 600 381 / 255;
#X obj 634 401 / 255;
#X obj 669 421 / 255;
#X obj 325 518 colorRGB 1 1 1;
#X msg 639 333 255 255 255;
#X obj 344 173 * 16;
#X obj 344 193 - 8;
#X obj 270 213 * 8;
#X obj 65 451 osc~;
#X obj 387 59 expr if($f1==0 \, 0 \, if($f1==1 \, 2 \, if($f1==2 \,
4 \, if($f1==3 \, 5 \, if($f1==4 \, 7 \, if($f1==5 \, 9 \, if($f1==6
\, 0 \, 12)))))));
#X obj 53 270 expr if($f1==0 \, 1 \, if($f1==1 \, 4 \, if($f1==2 \,
7 \, if($f1==3 \, 11 \, if($f1==4 \, 21 \, 50)))));
#X obj 325 490 alpha 1;
#X obj 325 448 pix_image planet.png;
#X obj 325 611 translateXYZ 0 0 0;
#X obj 325 562 scale 1;
#X obj 222 435 * 10;
#X obj 65 38 r gobang;
#X obj 139 63 loadbang;
#X obj 600 502 r abc;
#X obj 222 330 random 1000;
#X obj 222 351 / 10000;
#X connect 0 0 1 0;
#X connect 1 0 36 0;
#X connect 3 0 13 0;
#X connect 4 0 8 0;
#X connect 6 0 7 0;
#X connect 7 0 0 1;
#X connect 9 0 10 0;
#X connect 10 0 35 0;
#X connect 10 0 8 1;
#X connect 11 0 40 0;
#X connect 12 0 3 0;
#X connect 13 0 43 0;
#X connect 14 0 4 1;
#X connect 14 0 41 1;
#X connect 14 0 41 2;
#X connect 15 0 16 0;
#X connect 16 0 33 0;
#X connect 17 0 39 0;
#X connect 19 0 24 0;
#X connect 20 0 24 0;
#X connect 21 0 24 0;
#X connect 22 0 24 0;
#X connect 23 0 24 0;
#X connect 24 0 28 0;
#X connect 24 1 29 0;
#X connect 24 2 30 0;
#X connect 25 0 5 0;
#X connect 25 0 38 0;
#X connect 25 1 6 0;
#X connect 25 2 47 0;
#X connect 25 3 9 0;
#X connect 25 4 15 0;
#X connect 25 5 26 0;
#X connect 26 0 27 0;
#X connect 27 0 19 0;
#X connect 27 1 20 0;
#X connect 27 2 21 0;
#X connect 27 3 22 0;
#X connect 27 4 23 0;
#X connect 27 5 32 0;
#X connect 28 0 31 1;
#X connect 29 0 31 2;
#X connect 30 0 31 3;
#X connect 31 0 42 0;
#X connect 32 0 24 0;
#X connect 33 0 34 0;
#X connect 35 0 18 1;
#X connect 36 0 4 0;
#X connect 38 0 0 0;
#X connect 39 0 31 0;
#X connect 40 0 17 0;
#X connect 41 0 18 0;
#X connect 42 0 41 0;
#X connect 43 0 14 0;
#X connect 44 0 25 0;
#X connect 45 0 25 0;
#X connect 46 0 42 1;
#X connect 47 0 48 0;
#X connect 48 0 12 0;
